<?xml version="1.0" encoding="UTF-8"?>
<!DOCTYPE svg PUBLIC "-//W3C//DTD SVG 1.1//EN" "http://www.w3.org/Graphics/SVG/1.1/DTD/svg11.dtd">
<!-- Creator: CorelDRAW 2019 (64-Bit) -->
<svg xmlns="http://www.w3.org/2000/svg" xml:space="preserve" width="190.814mm" height="190.813mm" version="1.1" style="shape-rendering:geometricPrecision; text-rendering:geometricPrecision; image-rendering:optimizeQuality; fill-rule:evenodd; clip-rule:evenodd"
viewBox="0 0 190.7984 190.7979"
 xmlns:xlink="http://www.w3.org/1999/xlink"
 xmlns:xodm="http://www.corel.com/coreldraw/odm/2003">
 <defs>
  <style type="text/css">
   <![CDATA[
    .fil1 {fill:#FEFEFE}
    .fil0 {fill:#2B2A29}
    .fil2 {fill:#E31E24}
   ]]>
  </style>
 </defs>
 <g id="Layer_x0020_1">
  <metadata id="CorelCorpID_0Corel-Layer"/>
  <g id="_899048480">
   <path class="fil0" d="M95.3991 0c52.6785,0 95.3993,42.7203 95.3993,95.3988 0,52.6788 -42.7208,95.3991 -95.3993,95.3991 -52.6788,0 -95.3991,-42.7203 -95.3991,-95.3991 0,-52.6785 42.7203,-95.3988 95.3991,-95.3988z"/>
   <path class="fil1" d="M9.9847 95.7833l1.3098 -10.1739c0.9649,-7.4736 6.3307,-9.578 13.5239,-8.651 7.2787,0.9351 12.0591,4.2253 11.0842,11.8214l-1.3115 10.1721 -24.6064 -3.1685zm6.3063 -5.9302l0 0 13.934 1.7945 0.2372 -1.8295c0.5831,-4.5582 -1.9823,-5.5383 -6.2724,-6.0911 -3.9766,-0.512 -7.0932,-0.1345 -7.6567,4.2639l-0.2421 1.8623zm163.7235 -6.779l0 0 0.7674 11.3071c0.3245,4.8103 -1.8367,7.7454 -6.8746,8.087 -5.4526,0.3707 -8.3234,-2.4798 -8.6681,-7.5472l-0.2774 -4.0991 -9.3582 0.634 -0.4546 -6.6955 24.8653 -1.6864zm-10.4226 7.3968l0 0c0.1395,2.056 0.0346,5.7647 3.471,5.5091 3.1334,-0.2338 2.6416,-3.7424 2.4966,-5.877l-5.9676 0.368zm-126.4203 -45.9849l0 0c-4.9175,-6.835 -4.3784,-14.0052 1.6293,-18.0873 5.9935,-4.0727 12.7205,-3.1994 17.6731,4.1426 3.712,5.5028 5.62,12.3635 -1.5561,17.8407 -6.679,5.0971 -13.347,2.2185 -17.7463,-3.896zm5.5789 -4.0959l0 0c1.8745,2.5797 5.081,5.8957 8.5524,3.2977 3.4651,-2.5937 1.3111,-6.4676 -0.5543,-9.2117 -1.78,-2.6182 -5.1352,-5.6171 -8.5101,-3.2056 -3.0321,2.167 -1.8254,5.9021 0.512,9.1196zm25.2379 119.9246l0 0 -5.6579 -2.5983c0.8624,-2.279 0.8359,-4.4888 -1.4857,-5.7388 -1.322,-0.7114 -3.4462,-0.7673 -4.337,0.7663 -1.3127,2.2586 1.5947,4.5157 2.8009,5.6134 2.7094,2.4662 5.6046,6.35 3.0376,10.6616 -2.5556,4.2932 -7.41,3.8451 -11.4077,1.6947 -4.4926,-2.417 -6.9521,-5.8306 -4.9159,-11.0576l5.7702 2.6818c-0.6635,1.9834 -0.118,3.6999 1.7317,4.6948 1.0456,0.562 2.6004,0.5495 3.274,-0.7029 0.6573,-1.2218 -0.439,-2.161 -1.1963,-2.8052 -3.5073,-2.9822 -8.6129,-7.7447 -5.0672,-13.3853 3.2278,-5.135 8.565,-4.5229 13.0558,-1.9305 4.8396,2.7931 6.9795,6.1429 4.3975,12.1062zm19.4257 8.9032l0 0 -3.2327 -0.0822c-5.0101,-0.0906 -4.7035,5.6073 -0.2324,5.6943l3.3664 0.0847 0.0987 -5.6968zm6.8999 -14.2886l0 0 -0.4838 24.7168 -12.5216 -0.249c-3.7577,-0.0746 -7.5772,-1.3798 -7.4641,-7.0867 0.0705,-3.5332 1.7995,-5.4435 4.9131,-6.4088 0.5569,-0.1726 0.552,-0.5797 -0.0077,-0.8708 -1.3794,-0.7182 -2.367,-2.1538 -3.115,-3.726l-2.9203 -6.8304 7.4439 0.1475 3.4247 7.4878c0.7036,1.3868 1.5686,2.8449 3.2563,2.8776l0.6664 0.0136 0.1947 -10.2034 6.6132 0.1318zm79.38 -45.1888l0 0 -25.1778 -6.9516 -5.0201 18.1808 5.3005 1.4642 3.2392 -11.7321 5.3728 1.4836 -2.9056 10.5227 4.9191 1.3587 2.9069 -10.5245 4.3796 1.2102 -3.1363 11.3596 5.0738 1.4014 5.0479 -17.7729zm-6.3366 -47.3336l0 0 2.2997 6.3353 -23.3028 8.4589 -2.2985 -6.3365 23.3016 -8.4577zm-14.5797 -22.4413l0 0 -20.2237 14.4534 10.2579 14.3559 4.8669 -3.4785 -6.3153 -8.8364 15.3594 -10.976 -3.9452 -5.5184zm-12.6282 -10.9185l0 0 5.3045 4.0901 -15.3406 19.7486 -5.3055 -4.0897 15.3416 -19.749zm-87.8663 -10.8354l0 0 1.6844 5.7401 6.8903 -2.0233 5.3318 18.1659 6.469 -1.8971 -5.3332 -18.1677 6.8755 -2.0175 -1.6864 -5.7393 -20.2313 5.939zm-39.7807 41.1493l0 0 20.9574 13.8096 3.619 -5.4889 -8.385 -5.5266 4.435 -6.7309 8.3855 5.5266 3.9062 -5.9282 -20.9577 -13.8114 -3.9072 5.9286 7.5794 4.9935 -4.4365 6.731 -7.5773 -4.9945 -3.6188 5.4912zm67.7818 -34.8447l0 0c-0.2543,-7.9744 3.9611,-13.2388 10.8416,-13.3631 5.4612,-0.0988 9.3471,2.5155 10.8006,7.6495l-5.8421 1.3085c-0.5484,-1.9704 -1.7236,-3.6096 -4.1503,-3.54 -3.5287,0.101 -5.0043,3.907 -4.8669,7.6724 0.1105,3.0191 0.6488,7.3223 4.752,7.1137 2.9572,-0.1504 4.1076,-2.3752 4.5124,-4.7831l5.798 1.8762c-0.9263,4.4541 -3.5709,8.1252 -9.9492,8.5092 -7.946,0.4785 -11.6689,-5.3098 -11.8963,-12.4432zm33.271 -10.6327l0 0 5.9352 2.8302 -3.9058 8.1914 7.2771 3.4696 3.904 -8.1933 6.4106 3.0551 -10.8024 22.6563 -6.4083 -3.0546 4.3224 -9.0644 -7.2768 -3.4682 -4.3211 9.064 -5.9351 -2.8306 10.8002 -22.6555zm50.3249 122.7934l0 0 -6.0363 9.5929c-2.5689,4.0784 -6.0439,5.1795 -10.3176,2.4897 -4.6255,-2.9094 -5.2685,-6.9031 -2.5646,-11.2032l2.1894 -3.4767 -7.939 -4.9957 3.5738 -5.6805 21.0942 13.2735zm-12.7799 -0.1554l0 0c-1.0978,1.7444 -3.3659,4.6808 -0.4375,6.4964 2.671,1.6557 4.3389,-1.4692 5.4777,-3.2811l-5.0402 -3.2152zm-4.542 22.4718l0 0 -14.6077 -20.1935 -5.4369 3.9335 5.4974 7.6 -3.3292 2.4069c-4.1157,2.9784 -5.0117,6.9235 -1.8083,11.35 2.9594,4.0922 6.5945,4.369 10.5008,1.546l9.184 -6.6429zm-11.7967 -4.9195l0 0 3.4738 4.8662c-1.7332,1.2546 -4.4488,3.5302 -6.307,0.9968 -2.038,-2.7787 1.1627,-4.6552 2.8332,-5.863zm-10.0233 19.3185l0 0 -17.5057 5.9079 -1.6527 -4.7837 11.1374 -3.85 -1.386 -4.0136 -10.3195 3.5663 -1.5787 -4.569 10.3172 -3.5661 -1.6837 -4.8728 -11.5031 3.9765 -1.7959 -5.1977 17.8257 -6.1617 8.1449 23.5639zm-114.0333 -45.4751l0 0 -5.3626 -17.6804 4.8321 -1.5037 3.5032 11.2514 4.0546 -1.2613 -3.2449 -10.425 4.6159 -1.4363 3.2448 10.4226 4.9224 -1.5315 -3.6178 -11.6217 5.2502 -1.6334 5.6071 18.008 -23.805 7.4112zm21.5614 15.3632l0 0 -1.8416 -2.7494c-2.8851,-4.241 -7.4652,-0.6166 -4.8964,3.1703l1.9187 2.8637 4.8192 -3.2846zm16.019 -2.6763l0 0 -3.7976 -5.605 -8.6429 5.8666 -0.3823 -0.5636c-0.9706,-1.4307 -0.2623,-3.0156 0.481,-4.4227l4.2337 -7.2878 -4.2756 -6.3078 -3.9826 6.4769c-0.8719,1.5537 -1.4881,3.2278 -1.2736,4.8046 0.0877,0.6394 -0.2492,0.8845 -0.7234,0.521 -2.6458,-2.0304 -5.2649,-2.3482 -8.2588,-0.3186 -4.8366,3.278 -3.6707,7.2411 -1.5119,10.4259l7.1918 10.6123 20.9422 -14.2018z"/>
   <polygon class="fil2" points="124.0051,50.9581 139.8398,66.7929 122.4304,84.2022 147.0514,84.2022 147.0514,106.5954 122.4304,106.5954 139.8398,124.0048 124.0051,139.8397 106.5956,122.4303 106.5956,147.0508 84.2019,147.0508 84.2019,122.4303 66.7931,139.8397 50.9582,124.0048 68.3676,106.5954 43.747,106.5954 43.747,84.2022 68.3676,84.2022 50.9582,66.7929 66.7931,50.9581 84.2019,68.367 84.2019,43.7469 106.5956,43.7469 106.5956,68.367 "/>
  </g>
 </g>
</svg>
